<?xml version="1.0" encoding="UTF-8" standalone="no"?>
<!DOCTYPE svg PUBLIC "-//W3C//DTD SVG 1.1//EN" "http://www.w3.org/Graphics/SVG/1.1/DTD/svg11.dtd">
<!-- Generated by Microsoft Visio, SVG Export life-line.svg Page-1 -->
<svg xmlns="http://www.w3.org/2000/svg" xmlns:xlink="http://www.w3.org/1999/xlink" xmlns:ev="http://www.w3.org/2001/xml-events"
		xmlns:v="http://schemas.microsoft.com/visio/2003/SVGExtensions/" width="4.61279in" height="3.47395in"
		viewBox="0 0 332.121 250.125" xml:space="preserve" color-interpolation-filters="sRGB" class="st17">
	<v:documentProperties v:langID="1033" v:metric="true" v:viewMarkup="false">
		<v:userDefs>
			<v:ud v:nameU="msvNoAutoConnect" v:val="VT0(1):26"/>
		</v:userDefs>
	</v:documentProperties>

	<style type="text/css">
	<![CDATA[
		.st1 {marker-end:url(#mrkr4-7);stroke:#000000;stroke-linecap:round;stroke-linejoin:round;stroke-width:1.25}
		.st2 {fill:#000000;fill-opacity:1;stroke:#000000;stroke-opacity:1;stroke-width:0.3315649867374}
		.st3 {fill:#ececec;visibility:hidden}
		.st4 {stroke:none;stroke-linecap:butt;stroke-width:1.25}
		.st5 {fill:#000000;font-family:思源宋体 CN Heavy;font-size:1.5em;font-weight:bold}
		.st6 {marker-end:url(#mrkr4-27);stroke:#000000;stroke-dasharray:14,10;stroke-linecap:round;stroke-linejoin:round;stroke-width:2}
		.st7 {fill:#000000;fill-opacity:1;stroke:#000000;stroke-opacity:1;stroke-width:0.44247787610619}
		.st8 {stroke:#000000;stroke-linecap:round;stroke-linejoin:round;stroke-width:2}
		.st9 {fill:#ffffff;stroke:#000000;stroke-linecap:round;stroke-linejoin:round;stroke-width:1}
		.st10 {fill:#000000;font-family:思源宋体 CN;font-size:0.833336em}
		.st11 {font-size:1em}
		.st12 {stroke:#000000;stroke-dasharray:14,10;stroke-linecap:round;stroke-linejoin:round;stroke-width:2}
		.st13 {stroke:#000000;stroke-dasharray:0,6.25;stroke-linecap:round;stroke-linejoin:round;stroke-width:1.25}
		.st14 {fill:#000000;stroke:none;stroke-linecap:round;stroke-linejoin:round;stroke-width:0.2376}
		.st15 {fill:none;stroke:none;stroke-linecap:round;stroke-linejoin:round;stroke-width:0.75}
		.st16 {fill:#000000;font-family:Calibri;font-size:1.00001em;font-weight:bold}
		.st17 {fill:none;fill-rule:evenodd;font-size:12px;overflow:visible;stroke-linecap:square;stroke-miterlimit:3}
	]]>
	</style>

	<defs id="Markers">
		<g id="lend4">
			<path d="M 2 1 L 0 0 L 2 -1 L 2 1 " style="stroke:none"/>
		</g>
		<marker id="mrkr4-7" class="st2" v:arrowType="4" v:arrowSize="2" v:setback="6.032" refX="-6.032" orient="auto"
				markerUnits="strokeWidth" overflow="visible">
			<use xlink:href="#lend4" transform="scale(-3.016,-3.016) "/>
		</marker>
		<marker id="mrkr4-27" class="st7" v:arrowType="4" v:arrowSize="2" v:setback="4.52" refX="-4.52" orient="auto"
				markerUnits="strokeWidth" overflow="visible">
			<use xlink:href="#lend4" transform="scale(-2.26,-2.26) "/>
		</marker>
	</defs>
	<g v:mID="0" v:index="1" v:groupContext="foregroundPage">
		<v:userDefs>
			<v:ud v:nameU="msvThemeOrder" v:val="VT0(0):26"/>
		</v:userDefs>
		<title>Page-1</title>
		<v:pageProperties v:drawingScale="0.0393701" v:pageScale="0.0393701" v:drawingUnits="24" v:shadowOffsetX="8.50394"
				v:shadowOffsetY="-8.50394"/>
		<v:layer v:name="连接线" v:index="0"/>
		<v:layer v:name="Container" v:index="1"/>
		<v:layer v:name="Flowchart" v:index="2"/>
		<v:layer v:name="流程图" v:index="3"/>
		<v:layer v:name="Connector" v:index="4"/>
		<g id="group64-1" transform="translate(25.6388,-25.6001)" v:mID="64" v:groupContext="group">
			<v:userDefs>
				<v:ud v:nameU="visVersion" v:val="VT0(15):26"/>
			</v:userDefs>
			<title>X axis.64</title>
			<g id="shape65-2" v:mID="65" v:groupContext="shape">
				<title>Sheet.65</title>
				<path d="M0 250.12 L290.51 250.12" class="st1"/>
			</g>
			<g id="shape66-8" v:mID="66" v:groupContext="shape" transform="translate(0,18)">
				<title>Sheet.66</title>
				<desc>个人投入</desc>
				<v:textBlock v:margins="rect(4,4,4,4)" v:tabSpace="42.5197" v:verticalAlign="0"/>
				<v:textRect cx="140.522" cy="241.125" width="281.05" height="18"/>
				<rect x="0" y="232.125" width="281.044" height="18" class="st3"/>
				<rect x="0" y="232.125" width="281.044" height="18" class="st4"/>
				<text x="104.52" y="252.32" class="st5" v:langID="2052"><v:paragraph v:horizAlign="1"/><v:tabList/>个人投入</text>			</g>
		</g>
		<g id="group67-12" transform="translate(-224.071,224.524) rotate(-90)" v:mID="67" v:groupContext="group">
			<v:userDefs>
				<v:ud v:nameU="visVersion" v:val="VT0(15):26"/>
			</v:userDefs>
			<title>X axis.67</title>
			<g id="shape68-13" v:mID="68" v:groupContext="shape">
				<title>Sheet.68</title>
				<path d="M0 250.12 L208.55 250.12" class="st1"/>
			</g>
			<g id="shape69-18" v:mID="69" v:groupContext="shape" transform="translate(6.39488E-13,-6.80315)">
				<title>Sheet.69</title>
				<desc>社会层级</desc>
				<v:textBlock v:margins="rect(4,4,4,4)" v:tabSpace="42.5197" v:verticalAlign="0"/>
				<v:textRect cx="99.5433" cy="241.125" width="199.09" height="18"/>
				<rect x="0" y="232.125" width="199.087" height="18" class="st3"/>
				<rect x="0" y="232.125" width="199.087" height="18" class="st4"/>
				<text x="63.54" y="252.32" class="st5" v:langID="2052"><v:paragraph v:horizAlign="1"/><v:tabList/>社会层级</text>			</g>
		</g>
		<g id="shape74-22" v:mID="74" v:groupContext="shape" transform="translate(-125.082,25.1304) rotate(-37.1743)">
			<title>Sheet.74</title>
			<path d="M0 250.12 L332.48 250.12" class="st6"/>
		</g>
		<g id="shape78-28" v:mID="78" v:groupContext="shape" v:layerMember="0" transform="translate(26.0531,-24.0901)">
			<title>动态连接线</title>
			<path d="M0 248.52 L14.46 248.52 L14.46 237.56" class="st8"/>
		</g>
		<g id="shape79-31" v:mID="79" v:groupContext="shape" v:layerMember="0" transform="translate(40.5115,-36.6588)">
			<title>动态连接线.79</title>
			<path d="M0 250.12 L21.11 250.12 L21.11 234.12" class="st8"/>
		</g>
		<g id="shape80-34" v:mID="80" v:groupContext="shape" v:layerMember="0" transform="translate(61.6166,-52.6635)">
			<title>动态连接线.80</title>
			<path d="M0 250.12 L19.9 250.12 L19.9 235.03" class="st8"/>
		</g>
		<g id="shape81-37" v:mID="81" v:groupContext="shape" v:layerMember="0" transform="translate(81.5158,-67.7537)">
			<title>动态连接线.81</title>
			<path d="M0 250.12 L26.86 250.12 L26.86 229.76" class="st8"/>
		</g>
		<g id="shape82-40" v:mID="82" v:groupContext="shape" v:layerMember="0" transform="translate(108.374,-88.121)">
			<title>动态连接线.82</title>
			<path d="M0 250.12 L35.81 250.12 L35.81 222.97" class="st8"/>
		</g>
		<g id="shape83-43" v:mID="83" v:groupContext="shape" v:layerMember="0" transform="translate(144.184,-115.277)">
			<title>动态连接线.83</title>
			<path d="M0 250.12 L57.86 250.12 L57.86 206.24" class="st8"/>
		</g>
		<g id="shape85-46" v:mID="85" v:groupContext="shape" v:layerMember="0" transform="translate(202.049,-159.158)">
			<title>动态连接线.85</title>
			<path d="M0 250.12 L81.62 250.12 L81.62 188.23" class="st8"/>
		</g>
		<g id="shape86-49" v:mID="86" v:groupContext="shape" transform="translate(53.5492,-210.513)">
			<title>Sheet.86</title>
			<desc>线性层级 阶梯层级</desc>
			<v:textBlock v:margins="rect(4,4,4,4)" v:tabSpace="42.5197"/>
			<v:textRect cx="46.6299" cy="235.951" width="93.26" height="28.3465"/>
			<rect x="0" y="221.778" width="93.2598" height="28.3465" rx="5.66929" ry="5.66929" class="st9"/>
			<text x="49.26" y="232.95" class="st10" v:langID="2052"><v:paragraph v:horizAlign="2"/><v:tabList/>线性层级<v:newlineChar/><tspan
						x="49.26" dy="1.2em" class="st11">阶梯层级</tspan></text>		</g>
		<g id="shape88-53" v:mID="88" v:groupContext="shape" transform="translate(60.0689,-230.356)">
			<title>Sheet.88</title>
			<path d="M0 250.12 L34.02 250.12" class="st12"/>
		</g>
		<g id="shape89-56" v:mID="89" v:groupContext="shape" transform="translate(60.0689,-219.017)">
			<title>Sheet.89</title>
			<path d="M0 250.12 L34.02 250.12" class="st8"/>
		</g>
		<g id="shape95-59" v:mID="95" v:groupContext="shape" transform="translate(533.789,90.9666) rotate(90)">
			<title>Sheet.95</title>
			<path d="M0 250.12 L132.23 250.12" class="st13"/>
		</g>
		<g id="shape96-62" v:mID="96" v:groupContext="shape" transform="translate(262.622,-152.489)">
			<title> Junction  dot</title>
			<v:userDefs>
				<v:ud v:nameU="Max" v:val="VT0(0.078740157480315):24"/>
				<v:ud v:nameU="CH1" v:val="VT0(5):26"/>
				<v:ud v:nameU="LimSize" v:val="VT0(0):26"/>
				<v:ud v:nameU="visVersion" v:val="VT0(15):26"/>
				<v:ud v:nameU="Max" v:prompt="" v:val="VT0(0.18524684083831):1"/>
				<v:ud v:nameU="LimSize" v:prompt="" v:val="VT0(0):5"/>
			</v:userDefs>
			<path d="M0 243.46 A6.66889 6.66889 0 0 1 13.34 243.46 A6.66889 6.66889 0 1 1 0 243.46 Z" class="st14"/>
		</g>
		<g id="shape97-64" v:mID="97" v:groupContext="shape" transform="translate(199.214,-156.323)">
			<title> Junction  dot.97</title>
			<v:userDefs>
				<v:ud v:nameU="Max" v:val="VT0(0.078740157480315):24"/>
				<v:ud v:nameU="CH1" v:val="VT0(5):26"/>
				<v:ud v:nameU="LimSize" v:val="VT0(0):26"/>
				<v:ud v:nameU="visVersion" v:val="VT0(15):26"/>
			</v:userDefs>
			<path d="M0 247.29 A2.83465 2.83465 0 0 1 5.67 247.29 A2.83465 2.83465 0 1 1 0 247.29 Z" class="st14"/>
		</g>
		<g id="shape98-66" v:mID="98" v:groupContext="shape" transform="translate(280.83,-218.216)">
			<title> Junction  dot.98</title>
			<v:userDefs>
				<v:ud v:nameU="Max" v:val="VT0(0.078740157480315):24"/>
				<v:ud v:nameU="CH1" v:val="VT0(5):26"/>
				<v:ud v:nameU="LimSize" v:val="VT0(0):26"/>
				<v:ud v:nameU="visVersion" v:val="VT0(15):26"/>
			</v:userDefs>
			<path d="M0 247.29 A2.83465 2.83465 0 0 1 5.67 247.29 A2.83465 2.83465 0 1 1 0 247.29 Z" class="st14"/>
		</g>
		<g id="shape99-68" v:mID="99" v:groupContext="shape" transform="translate(141.35,-112.443)">
			<title> Junction  dot.99</title>
			<v:userDefs>
				<v:ud v:nameU="Max" v:val="VT0(0.078740157480315):24"/>
				<v:ud v:nameU="CH1" v:val="VT0(5):26"/>
				<v:ud v:nameU="LimSize" v:val="VT0(0):26"/>
				<v:ud v:nameU="visVersion" v:val="VT0(15):26"/>
			</v:userDefs>
			<path d="M0 247.29 A2.83465 2.83465 0 0 1 5.67 247.29 A2.83465 2.83465 0 1 1 0 247.29 Z" class="st14"/>
		</g>
		<g id="shape100-70" v:mID="100" v:groupContext="shape" transform="translate(105.539,-85.2863)">
			<title> Junction  dot.100</title>
			<v:userDefs>
				<v:ud v:nameU="Max" v:val="VT0(0.078740157480315):24"/>
				<v:ud v:nameU="CH1" v:val="VT0(5):26"/>
				<v:ud v:nameU="LimSize" v:val="VT0(0):26"/>
				<v:ud v:nameU="visVersion" v:val="VT0(15):26"/>
			</v:userDefs>
			<path d="M0 247.29 A2.83465 2.83465 0 0 1 5.67 247.29 A2.83465 2.83465 0 1 1 0 247.29 Z" class="st14"/>
		</g>
		<g id="shape101-72" v:mID="101" v:groupContext="shape" transform="translate(78.6811,-64.9191)">
			<title> Junction  dot.101</title>
			<v:userDefs>
				<v:ud v:nameU="Max" v:val="VT0(0.078740157480315):24"/>
				<v:ud v:nameU="CH1" v:val="VT0(5):26"/>
				<v:ud v:nameU="LimSize" v:val="VT0(0):26"/>
				<v:ud v:nameU="visVersion" v:val="VT0(15):26"/>
			</v:userDefs>
			<path d="M0 247.29 A2.83465 2.83465 0 0 1 5.67 247.29 A2.83465 2.83465 0 1 1 0 247.29 Z" class="st14"/>
		</g>
		<g id="shape102-74" v:mID="102" v:groupContext="shape" transform="translate(58.7819,-49.8288)">
			<title> Junction  dot.102</title>
			<v:userDefs>
				<v:ud v:nameU="Max" v:val="VT0(0.078740157480315):24"/>
				<v:ud v:nameU="CH1" v:val="VT0(5):26"/>
				<v:ud v:nameU="LimSize" v:val="VT0(0):26"/>
				<v:ud v:nameU="visVersion" v:val="VT0(15):26"/>
			</v:userDefs>
			<path d="M0 247.29 A2.83465 2.83465 0 0 1 5.67 247.29 A2.83465 2.83465 0 1 1 0 247.29 Z" class="st14"/>
		</g>
		<g id="shape103-76" v:mID="103" v:groupContext="shape" transform="translate(37.6769,-33.8242)">
			<title> Junction  dot.103</title>
			<v:userDefs>
				<v:ud v:nameU="Max" v:val="VT0(0.078740157480315):24"/>
				<v:ud v:nameU="CH1" v:val="VT0(5):26"/>
				<v:ud v:nameU="LimSize" v:val="VT0(0):26"/>
				<v:ud v:nameU="visVersion" v:val="VT0(15):26"/>
			</v:userDefs>
			<path d="M0 247.29 A2.83465 2.83465 0 0 1 5.67 247.29 A2.83465 2.83465 0 1 1 0 247.29 Z" class="st14"/>
		</g>
		<g id="shape104-78" v:mID="104" v:groupContext="shape" transform="translate(452.173,134.847) rotate(90)">
			<title>Sheet.104</title>
			<path d="M0 250.12 L88.35 250.12" class="st13"/>
		</g>
		<g id="shape106-81" v:mID="106" v:groupContext="shape" transform="translate(199.165,-22.6772)">
			<title> Junction  dot.106</title>
			<v:userDefs>
				<v:ud v:nameU="Max" v:val="VT0(0.078740157480315):24"/>
				<v:ud v:nameU="CH1" v:val="VT0(5):26"/>
				<v:ud v:nameU="LimSize" v:val="VT0(0):26"/>
				<v:ud v:nameU="visVersion" v:val="VT0(15):26"/>
			</v:userDefs>
			<path d="M0 247.29 A2.83465 2.83465 0 0 1 5.67 247.29 A2.83465 2.83465 0 1 1 0 247.29 Z" class="st14"/>
		</g>
		<g id="shape107-83" v:mID="107" v:groupContext="shape" transform="translate(202.528,-26.9291)">
			<title>Sheet.107</title>
			<desc>A</desc>
			<v:textBlock v:margins="rect(4,4,4,4)" v:tabSpace="42.5197"/>
			<v:textRect cx="7.16271" cy="240.125" width="14.33" height="20"/>
			<rect x="0" y="230.125" width="14.3254" height="20" class="st15"/>
			<text x="4" y="243.72" class="st16" v:langID="2052"><v:paragraph v:horizAlign="1"/><v:tabList/>A</text>		</g>
		<g id="shape111-86" v:mID="111" v:groupContext="shape" transform="translate(283.465,-26.9291)">
			<title>Sheet.111</title>
			<desc>B</desc>
			<v:textBlock v:margins="rect(4,4,4,4)" v:tabSpace="42.5197"/>
			<v:textRect cx="7.16271" cy="240.125" width="14.33" height="20"/>
			<rect x="0" y="230.125" width="14.3254" height="20" class="st15"/>
			<text x="4" y="243.72" class="st16" v:langID="2052"><v:paragraph v:horizAlign="1"/><v:tabList/>B</text>		</g>
		<g id="shape112-89" v:mID="112" v:groupContext="shape" transform="translate(262.053,-165.748)">
			<title>Sheet.112</title>
			<desc>C</desc>
			<v:textBlock v:margins="rect(4,4,4,4)" v:tabSpace="42.5197"/>
			<v:textRect cx="7.16271" cy="240.125" width="14.33" height="20"/>
			<rect x="0" y="230.125" width="14.3254" height="20" class="st15"/>
			<text x="4" y="243.72" class="st16" v:langID="2052"><v:paragraph v:horizAlign="1"/><v:tabList/>C</text>		</g>
		<g id="shape113-92" v:mID="113" v:groupContext="shape" transform="translate(280.63,-22.6772)">
			<title> Junction  dot.113</title>
			<v:userDefs>
				<v:ud v:nameU="Max" v:val="VT0(0.078740157480315):24"/>
				<v:ud v:nameU="CH1" v:val="VT0(5):26"/>
				<v:ud v:nameU="LimSize" v:val="VT0(0):26"/>
				<v:ud v:nameU="visVersion" v:val="VT0(15):26"/>
			</v:userDefs>
			<path d="M0 247.29 A2.83465 2.83465 0 0 1 5.67 247.29 A2.83465 2.83465 0 1 1 0 247.29 Z" class="st14"/>
		</g>
		<g id="shape114-94" v:mID="114" v:groupContext="shape" transform="translate(394.309,162.004) rotate(90)">
			<title>Sheet.114</title>
			<path d="M0 250.12 L61.19 250.12" class="st13"/>
		</g>
		<g id="shape115-97" v:mID="115" v:groupContext="shape" transform="translate(358.498,162.004) rotate(90)">
			<title>Sheet.115</title>
			<path d="M0 250.12 L61.19 250.12" class="st13"/>
		</g>
		<g id="shape116-100" v:mID="116" v:groupContext="shape" transform="translate(331.64,197.461) rotate(90)">
			<title>Sheet.116</title>
			<path d="M0 250.12 L25.73 250.12" class="st13"/>
		</g>
		<g id="group117-103" transform="translate(25.6388,-25.6001)" v:mID="117" v:groupContext="group">
			<v:userDefs>
				<v:ud v:nameU="visVersion" v:val="VT0(15):26"/>
			</v:userDefs>
			<title>X axis.117</title>
			<g id="shape118-104" v:mID="118" v:groupContext="shape">
				<title>Sheet.118</title>
				<path d="M0 250.12 L290.51 250.12" class="st1"/>
			</g>
			<g id="shape119-109" v:mID="119" v:groupContext="shape" transform="translate(0,18)">
				<title>Sheet.119</title>
				<desc>个人投入</desc>
				<v:textBlock v:margins="rect(4,4,4,4)" v:tabSpace="42.5197" v:verticalAlign="0"/>
				<v:textRect cx="140.522" cy="241.125" width="281.05" height="18"/>
				<rect x="0" y="232.125" width="281.044" height="18" class="st3"/>
				<rect x="0" y="232.125" width="281.044" height="18" class="st4"/>
				<text x="104.52" y="252.32" class="st5" v:langID="2052"><v:paragraph v:horizAlign="1"/><v:tabList/>个人投入</text>			</g>
		</g>
		<g id="group120-113" transform="translate(-224.071,224.524) rotate(-90)" v:mID="120" v:groupContext="group">
			<v:userDefs>
				<v:ud v:nameU="visVersion" v:val="VT0(15):26"/>
			</v:userDefs>
			<title>X axis.120</title>
			<g id="shape121-114" v:mID="121" v:groupContext="shape">
				<title>Sheet.121</title>
				<path d="M0 250.12 L208.55 250.12" class="st1"/>
			</g>
			<g id="shape122-119" v:mID="122" v:groupContext="shape" transform="translate(6.39488E-13,-6.80315)">
				<title>Sheet.122</title>
				<desc>社会层级</desc>
				<v:textBlock v:margins="rect(4,4,4,4)" v:tabSpace="42.5197" v:verticalAlign="0"/>
				<v:textRect cx="99.5433" cy="241.125" width="199.09" height="18"/>
				<rect x="0" y="232.125" width="199.087" height="18" class="st3"/>
				<rect x="0" y="232.125" width="199.087" height="18" class="st4"/>
				<text x="63.54" y="252.32" class="st5" v:langID="2052"><v:paragraph v:horizAlign="1"/><v:tabList/>社会层级</text>			</g>
		</g>
		<g id="shape123-123" v:mID="123" v:groupContext="shape" transform="translate(-125.082,25.1304) rotate(-37.1743)">
			<title>Sheet.123</title>
			<path d="M0 250.12 L332.48 250.12" class="st6"/>
		</g>
		<g id="shape124-128" v:mID="124" v:groupContext="shape" v:layerMember="0" transform="translate(26.0531,-24.0901)">
			<title>动态连接线.124</title>
			<path d="M0 248.52 L14.46 248.52 L14.46 237.56" class="st8"/>
		</g>
		<g id="shape125-131" v:mID="125" v:groupContext="shape" v:layerMember="0" transform="translate(40.5115,-36.6588)">
			<title>动态连接线.125</title>
			<path d="M0 250.12 L21.11 250.12 L21.11 234.12" class="st8"/>
		</g>
		<g id="shape126-134" v:mID="126" v:groupContext="shape" v:layerMember="0" transform="translate(61.6166,-52.6635)">
			<title>动态连接线.126</title>
			<path d="M0 250.12 L19.9 250.12 L19.9 235.03" class="st8"/>
		</g>
		<g id="shape127-137" v:mID="127" v:groupContext="shape" v:layerMember="0" transform="translate(81.5158,-67.7537)">
			<title>动态连接线.127</title>
			<path d="M0 250.12 L26.86 250.12 L26.86 229.76" class="st8"/>
		</g>
		<g id="shape128-140" v:mID="128" v:groupContext="shape" v:layerMember="0" transform="translate(108.374,-88.121)">
			<title>动态连接线.128</title>
			<path d="M0 250.12 L35.81 250.12 L35.81 222.97" class="st8"/>
		</g>
		<g id="shape129-143" v:mID="129" v:groupContext="shape" v:layerMember="0" transform="translate(144.184,-115.277)">
			<title>动态连接线.129</title>
			<path d="M0 250.12 L57.86 250.12 L57.86 206.24" class="st8"/>
		</g>
		<g id="shape130-146" v:mID="130" v:groupContext="shape" v:layerMember="0" transform="translate(202.049,-159.158)">
			<title>动态连接线.130</title>
			<path d="M0 250.12 L81.62 250.12 L81.62 188.23" class="st8"/>
		</g>
		<g id="shape131-149" v:mID="131" v:groupContext="shape" transform="translate(53.5492,-210.513)">
			<title>Sheet.131</title>
			<desc>线性层级 阶梯层级</desc>
			<v:textBlock v:margins="rect(4,4,4,4)" v:tabSpace="42.5197"/>
			<v:textRect cx="46.6299" cy="235.951" width="93.26" height="28.3465"/>
			<rect x="0" y="221.778" width="93.2598" height="28.3465" rx="5.66929" ry="5.66929" class="st9"/>
			<text x="49.26" y="232.95" class="st10" v:langID="2052"><v:paragraph v:horizAlign="2"/><v:tabList/>线性层级<v:newlineChar/><tspan
						x="49.26" dy="1.2em" class="st11">阶梯层级</tspan></text>		</g>
		<g id="shape132-153" v:mID="132" v:groupContext="shape" transform="translate(60.0689,-230.356)">
			<title>Sheet.132</title>
			<path d="M0 250.12 L34.02 250.12" class="st12"/>
		</g>
		<g id="shape133-156" v:mID="133" v:groupContext="shape" transform="translate(60.0689,-219.017)">
			<title>Sheet.133</title>
			<path d="M0 250.12 L34.02 250.12" class="st8"/>
		</g>
		<g id="shape134-159" v:mID="134" v:groupContext="shape" transform="translate(533.789,90.9666) rotate(90)">
			<title>Sheet.134</title>
			<path d="M0 250.12 L132.23 250.12" class="st13"/>
		</g>
		<g id="shape135-162" v:mID="135" v:groupContext="shape" transform="translate(262.622,-152.489)">
			<title> Junction  dot.135</title>
			<v:userDefs>
				<v:ud v:nameU="Max" v:val="VT0(0.078740157480315):24"/>
				<v:ud v:nameU="CH1" v:val="VT0(5):26"/>
				<v:ud v:nameU="LimSize" v:val="VT0(0):26"/>
				<v:ud v:nameU="visVersion" v:val="VT0(15):26"/>
				<v:ud v:nameU="Max" v:prompt="" v:val="VT0(0.18524684083831):1"/>
				<v:ud v:nameU="LimSize" v:prompt="" v:val="VT0(0):5"/>
			</v:userDefs>
			<path d="M0 243.46 A6.66889 6.66889 0 0 1 13.34 243.46 A6.66889 6.66889 0 1 1 0 243.46 Z" class="st14"/>
		</g>
		<g id="shape136-164" v:mID="136" v:groupContext="shape" transform="translate(199.214,-156.323)">
			<title> Junction  dot.136</title>
			<v:userDefs>
				<v:ud v:nameU="Max" v:val="VT0(0.078740157480315):24"/>
				<v:ud v:nameU="CH1" v:val="VT0(5):26"/>
				<v:ud v:nameU="LimSize" v:val="VT0(0):26"/>
				<v:ud v:nameU="visVersion" v:val="VT0(15):26"/>
			</v:userDefs>
			<path d="M0 247.29 A2.83465 2.83465 0 0 1 5.67 247.29 A2.83465 2.83465 0 1 1 0 247.29 Z" class="st14"/>
		</g>
		<g id="shape137-166" v:mID="137" v:groupContext="shape" transform="translate(280.83,-218.216)">
			<title> Junction  dot.137</title>
			<v:userDefs>
				<v:ud v:nameU="Max" v:val="VT0(0.078740157480315):24"/>
				<v:ud v:nameU="CH1" v:val="VT0(5):26"/>
				<v:ud v:nameU="LimSize" v:val="VT0(0):26"/>
				<v:ud v:nameU="visVersion" v:val="VT0(15):26"/>
			</v:userDefs>
			<path d="M0 247.29 A2.83465 2.83465 0 0 1 5.67 247.29 A2.83465 2.83465 0 1 1 0 247.29 Z" class="st14"/>
		</g>
		<g id="shape138-168" v:mID="138" v:groupContext="shape" transform="translate(141.35,-112.443)">
			<title> Junction  dot.138</title>
			<v:userDefs>
				<v:ud v:nameU="Max" v:val="VT0(0.078740157480315):24"/>
				<v:ud v:nameU="CH1" v:val="VT0(5):26"/>
				<v:ud v:nameU="LimSize" v:val="VT0(0):26"/>
				<v:ud v:nameU="visVersion" v:val="VT0(15):26"/>
			</v:userDefs>
			<path d="M0 247.29 A2.83465 2.83465 0 0 1 5.67 247.29 A2.83465 2.83465 0 1 1 0 247.29 Z" class="st14"/>
		</g>
		<g id="shape139-170" v:mID="139" v:groupContext="shape" transform="translate(105.539,-85.2863)">
			<title> Junction  dot.139</title>
			<v:userDefs>
				<v:ud v:nameU="Max" v:val="VT0(0.078740157480315):24"/>
				<v:ud v:nameU="CH1" v:val="VT0(5):26"/>
				<v:ud v:nameU="LimSize" v:val="VT0(0):26"/>
				<v:ud v:nameU="visVersion" v:val="VT0(15):26"/>
			</v:userDefs>
			<path d="M0 247.29 A2.83465 2.83465 0 0 1 5.67 247.29 A2.83465 2.83465 0 1 1 0 247.29 Z" class="st14"/>
		</g>
		<g id="shape140-172" v:mID="140" v:groupContext="shape" transform="translate(78.6811,-64.9191)">
			<title> Junction  dot.140</title>
			<v:userDefs>
				<v:ud v:nameU="Max" v:val="VT0(0.078740157480315):24"/>
				<v:ud v:nameU="CH1" v:val="VT0(5):26"/>
				<v:ud v:nameU="LimSize" v:val="VT0(0):26"/>
				<v:ud v:nameU="visVersion" v:val="VT0(15):26"/>
			</v:userDefs>
			<path d="M0 247.29 A2.83465 2.83465 0 0 1 5.67 247.29 A2.83465 2.83465 0 1 1 0 247.29 Z" class="st14"/>
		</g>
		<g id="shape141-174" v:mID="141" v:groupContext="shape" transform="translate(58.7819,-49.8288)">
			<title> Junction  dot.141</title>
			<v:userDefs>
				<v:ud v:nameU="Max" v:val="VT0(0.078740157480315):24"/>
				<v:ud v:nameU="CH1" v:val="VT0(5):26"/>
				<v:ud v:nameU="LimSize" v:val="VT0(0):26"/>
				<v:ud v:nameU="visVersion" v:val="VT0(15):26"/>
			</v:userDefs>
			<path d="M0 247.29 A2.83465 2.83465 0 0 1 5.67 247.29 A2.83465 2.83465 0 1 1 0 247.29 Z" class="st14"/>
		</g>
		<g id="shape142-176" v:mID="142" v:groupContext="shape" transform="translate(37.6769,-33.8242)">
			<title> Junction  dot.142</title>
			<v:userDefs>
				<v:ud v:nameU="Max" v:val="VT0(0.078740157480315):24"/>
				<v:ud v:nameU="CH1" v:val="VT0(5):26"/>
				<v:ud v:nameU="LimSize" v:val="VT0(0):26"/>
				<v:ud v:nameU="visVersion" v:val="VT0(15):26"/>
			</v:userDefs>
			<path d="M0 247.29 A2.83465 2.83465 0 0 1 5.67 247.29 A2.83465 2.83465 0 1 1 0 247.29 Z" class="st14"/>
		</g>
		<g id="shape143-178" v:mID="143" v:groupContext="shape" transform="translate(452.173,134.847) rotate(90)">
			<title>Sheet.143</title>
			<path d="M0 250.12 L88.35 250.12" class="st13"/>
		</g>
		<g id="shape144-181" v:mID="144" v:groupContext="shape" transform="translate(199.165,-22.6772)">
			<title> Junction  dot.144</title>
			<v:userDefs>
				<v:ud v:nameU="Max" v:val="VT0(0.078740157480315):24"/>
				<v:ud v:nameU="CH1" v:val="VT0(5):26"/>
				<v:ud v:nameU="LimSize" v:val="VT0(0):26"/>
				<v:ud v:nameU="visVersion" v:val="VT0(15):26"/>
			</v:userDefs>
			<path d="M0 247.29 A2.83465 2.83465 0 0 1 5.67 247.29 A2.83465 2.83465 0 1 1 0 247.29 Z" class="st14"/>
		</g>
		<g id="shape145-183" v:mID="145" v:groupContext="shape" transform="translate(202.528,-26.9291)">
			<title>Sheet.145</title>
			<desc>A</desc>
			<v:textBlock v:margins="rect(4,4,4,4)" v:tabSpace="42.5197"/>
			<v:textRect cx="7.16271" cy="240.125" width="14.33" height="20"/>
			<rect x="0" y="230.125" width="14.3254" height="20" class="st15"/>
			<text x="4" y="243.72" class="st16" v:langID="2052"><v:paragraph v:horizAlign="1"/><v:tabList/>A</text>		</g>
		<g id="shape146-186" v:mID="146" v:groupContext="shape" transform="translate(283.465,-26.9291)">
			<title>Sheet.146</title>
			<desc>B</desc>
			<v:textBlock v:margins="rect(4,4,4,4)" v:tabSpace="42.5197"/>
			<v:textRect cx="7.16271" cy="240.125" width="14.33" height="20"/>
			<rect x="0" y="230.125" width="14.3254" height="20" class="st15"/>
			<text x="4" y="243.72" class="st16" v:langID="2052"><v:paragraph v:horizAlign="1"/><v:tabList/>B</text>		</g>
		<g id="shape147-189" v:mID="147" v:groupContext="shape" transform="translate(262.053,-165.748)">
			<title>Sheet.147</title>
			<desc>C</desc>
			<v:textBlock v:margins="rect(4,4,4,4)" v:tabSpace="42.5197"/>
			<v:textRect cx="7.16271" cy="240.125" width="14.33" height="20"/>
			<rect x="0" y="230.125" width="14.3254" height="20" class="st15"/>
			<text x="4" y="243.72" class="st16" v:langID="2052"><v:paragraph v:horizAlign="1"/><v:tabList/>C</text>		</g>
		<g id="shape148-192" v:mID="148" v:groupContext="shape" transform="translate(280.63,-22.6772)">
			<title> Junction  dot.148</title>
			<v:userDefs>
				<v:ud v:nameU="Max" v:val="VT0(0.078740157480315):24"/>
				<v:ud v:nameU="CH1" v:val="VT0(5):26"/>
				<v:ud v:nameU="LimSize" v:val="VT0(0):26"/>
				<v:ud v:nameU="visVersion" v:val="VT0(15):26"/>
			</v:userDefs>
			<path d="M0 247.29 A2.83465 2.83465 0 0 1 5.67 247.29 A2.83465 2.83465 0 1 1 0 247.29 Z" class="st14"/>
		</g>
		<g id="shape149-194" v:mID="149" v:groupContext="shape" transform="translate(394.309,162.004) rotate(90)">
			<title>Sheet.149</title>
			<path d="M0 250.12 L61.19 250.12" class="st13"/>
		</g>
		<g id="shape150-197" v:mID="150" v:groupContext="shape" transform="translate(358.498,162.004) rotate(90)">
			<title>Sheet.150</title>
			<path d="M0 250.12 L61.19 250.12" class="st13"/>
		</g>
		<g id="shape151-200" v:mID="151" v:groupContext="shape" transform="translate(331.64,197.461) rotate(90)">
			<title>Sheet.151</title>
			<path d="M0 250.12 L25.73 250.12" class="st13"/>
		</g>
		<g id="shape152-203" v:mID="152" v:groupContext="shape" transform="translate(311.741,213.466) rotate(90)">
			<title>Sheet.152</title>
			<path d="M0 250.12 L9.73 250.12" class="st13"/>
		</g>
	</g>
</svg>
