<?xml version="1.0" encoding="UTF-8" standalone="no"?>
<!DOCTYPE svg PUBLIC "-//W3C//DTD SVG 1.1//EN" "http://www.w3.org/Graphics/SVG/1.1/DTD/svg11.dtd">
<!-- Generated by Microsoft Visio, SVG Export poisson.svg Page-1 -->
<svg xmlns="http://www.w3.org/2000/svg" xmlns:xlink="http://www.w3.org/1999/xlink" xmlns:ev="http://www.w3.org/2001/xml-events"
		xmlns:v="http://schemas.microsoft.com/visio/2003/SVGExtensions/" width="4.61279in" height="3.47395in"
		viewBox="0 0 332.121 250.125" xml:space="preserve" color-interpolation-filters="sRGB" class="st11">
	<v:documentProperties v:langID="1033" v:metric="true" v:viewMarkup="false">
		<v:userDefs>
			<v:ud v:nameU="msvNoAutoConnect" v:val="VT0(1):26"/>
		</v:userDefs>
	</v:documentProperties>

	<style type="text/css">
	<![CDATA[
		.st1 {stroke:#d8d8d8;stroke-linecap:round;stroke-linejoin:round;stroke-width:1.25}
		.st2 {marker-end:url(#mrkr4-34);stroke:#000000;stroke-linecap:round;stroke-linejoin:round;stroke-width:1.25}
		.st3 {fill:#000000;fill-opacity:1;stroke:#000000;stroke-opacity:1;stroke-width:0.3315649867374}
		.st4 {fill:#ececec;visibility:hidden}
		.st5 {stroke:none;stroke-linecap:butt;stroke-width:1.25}
		.st6 {fill:#000000;font-family:思源宋体 CN Heavy;font-size:1.5em;font-weight:bold}
		.st7 {stroke:#000000;stroke-linecap:round;stroke-linejoin:round;stroke-width:2}
		.st8 {fill:#000000;stroke:none;stroke-linecap:round;stroke-linejoin:round;stroke-width:0.2376}
		.st9 {fill:none;stroke:none;stroke-linecap:round;stroke-linejoin:round;stroke-width:0.75}
		.st10 {fill:#000000;font-family:思源宋体 CN;font-size:1.00001em}
		.st11 {fill:none;fill-rule:evenodd;font-size:12px;overflow:visible;stroke-linecap:square;stroke-miterlimit:3}
	]]>
	</style>

	<defs id="Markers">
		<g id="lend4">
			<path d="M 2 1 L 0 0 L 2 -1 L 2 1 " style="stroke:none"/>
		</g>
		<marker id="mrkr4-34" class="st3" v:arrowType="4" v:arrowSize="2" v:setback="6.032" refX="-6.032" orient="auto"
				markerUnits="strokeWidth" overflow="visible">
			<use xlink:href="#lend4" transform="scale(-3.016,-3.016) "/>
		</marker>
	</defs>
	<g v:mID="0" v:index="1" v:groupContext="foregroundPage">
		<v:userDefs>
			<v:ud v:nameU="msvThemeOrder" v:val="VT0(0):26"/>
		</v:userDefs>
		<title>Page-1</title>
		<v:pageProperties v:drawingScale="0.0393701" v:pageScale="0.0393701" v:drawingUnits="24" v:shadowOffsetX="8.50394"
				v:shadowOffsetY="-8.50394"/>
		<v:layer v:name="连接线" v:index="0"/>
		<v:layer v:name="Container" v:index="1"/>
		<v:layer v:name="Flowchart" v:index="2"/>
		<v:layer v:name="流程图" v:index="3"/>
		<v:layer v:name="Connector" v:index="4"/>
		<g id="shape95-1" v:mID="95" v:groupContext="shape" transform="translate(526.502,81.4631) rotate(90)">
			<title>Sheet.95</title>
			<path d="M0 250.12 L141.73 250.12" class="st1"/>
		</g>
		<g id="shape104-4" v:mID="104" v:groupContext="shape" transform="translate(444.447,109.81) rotate(90)">
			<title>Sheet.104</title>
			<path d="M0 250.12 L113.39 250.12" class="st1"/>
		</g>
		<g id="shape114-7" v:mID="114" v:groupContext="shape" transform="translate(335.164,166.503) rotate(90)">
			<title>Sheet.114</title>
			<path d="M0 250.12 L56.69 250.12" class="st1"/>
		</g>
		<g id="shape115-10" v:mID="115" v:groupContext="shape" transform="translate(318.753,180.676) rotate(90)">
			<title>Sheet.115</title>
			<path d="M0 250.12 L42.52 250.12" class="st1"/>
		</g>
		<g id="shape116-13" v:mID="116" v:groupContext="shape" transform="translate(306.817,194.849) rotate(90)">
			<title>Sheet.116</title>
			<path d="M0 250.12 L28.35 250.12" class="st1"/>
		</g>
		<g id="shape152-16" v:mID="152" v:groupContext="shape" transform="translate(-203.069,223.479) rotate(-90)">
			<title>Sheet.152</title>
			<path d="M0 250.12 L14.17 250.12" class="st1"/>
		</g>
		<g id="shape162-19" v:mID="162" v:groupContext="shape" transform="translate(370.597,152.329) rotate(90)">
			<title>Sheet.162</title>
			<path d="M0 250.12 L70.87 250.12" class="st1"/>
		</g>
		<g id="shape163-22" v:mID="163" v:groupContext="shape" transform="translate(375.446,138.156) rotate(90)">
			<title>Sheet.163</title>
			<path d="M0 250.12 L85.04 250.12" class="st1"/>
		</g>
		<g id="shape164-25" v:mID="164" v:groupContext="shape" transform="translate(413.117,123.983) rotate(90)">
			<title>Sheet.164</title>
			<path d="M0 250.12 L99.21 250.12" class="st1"/>
		</g>
		<g id="group64-28" transform="translate(26.1086,-25.6945)" v:mID="64" v:groupContext="group">
			<v:userDefs>
				<v:ud v:nameU="visVersion" v:val="VT0(15):26"/>
			</v:userDefs>
			<title>X axis.64</title>
			<g id="shape65-29" v:mID="65" v:groupContext="shape">
				<title>Sheet.65</title>
				<path d="M0 250.12 L290.46 250.12" class="st2"/>
			</g>
			<g id="shape66-35" v:mID="66" v:groupContext="shape" transform="translate(0,18)">
				<title>Sheet.66</title>
				<desc>时间</desc>
				<v:textBlock v:margins="rect(4,4,4,4)" v:tabSpace="42.5197" v:verticalAlign="0"/>
				<v:textRect cx="140.494" cy="241.125" width="280.99" height="18"/>
				<rect x="0" y="232.125" width="280.989" height="18" class="st4"/>
				<rect x="0" y="232.125" width="280.989" height="18" class="st5"/>
				<text x="122.49" y="252.32" class="st6" v:langID="2052"><v:paragraph v:horizAlign="1"/><v:tabList/>时间</text>			</g>
		</g>
		<g id="group67-39" transform="translate(-224.896,224.524) rotate(-90)" v:mID="67" v:groupContext="group">
			<v:userDefs>
				<v:ud v:nameU="visVersion" v:val="VT0(15):26"/>
			</v:userDefs>
			<title>X axis.67</title>
			<g id="shape68-40" v:mID="68" v:groupContext="shape">
				<title>Sheet.68</title>
				<path d="M0 250.12 L208.55 250.12" class="st2"/>
			</g>
			<g id="shape69-45" v:mID="69" v:groupContext="shape" transform="translate(6.39488E-13,-6.80315)">
				<title>Sheet.69</title>
				<v:textBlock v:margins="rect(4,4,4,4)" v:tabSpace="42.5197" v:verticalAlign="0"/>
				<rect x="0" y="232.125" width="199.087" height="18" class="st4"/>
				<rect x="0" y="232.125" width="199.087" height="18" class="st5"/>
			</g>
		</g>
		<g id="shape78-48" v:mID="78" v:groupContext="shape" v:layerMember="0" transform="translate(46.063,-40.252)">
			<title>动态连接线</title>
			<path d="M3.54 250.12 L10.63 250.12 L10.63 235.1" class="st7"/>
		</g>
		<g id="shape79-51" v:mID="79" v:groupContext="shape" v:layerMember="0" transform="translate(56.9913,-55.2756)">
			<title>动态连接线.79</title>
			<path d="M2.54 250.12 L11.64 250.12 L11.64 235.95" class="st7"/>
		</g>
		<g id="shape80-54" v:mID="80" v:groupContext="shape" v:layerMember="0" transform="translate(68.6283,-69.4488)">
			<title>动态连接线.80</title>
			<path d="M0 250.12 L16.41 250.12 L16.41 235.95" class="st7"/>
		</g>
		<g id="shape81-57" v:mID="81" v:groupContext="shape" v:layerMember="0" transform="translate(85.0394,-83.622)">
			<title>动态连接线.81</title>
			<path d="M0 250.12 L35.43 250.12 L35.43 235.95" class="st7"/>
		</g>
		<g id="shape82-60" v:mID="82" v:groupContext="shape" v:layerMember="0" transform="translate(115.81,-97.7952)">
			<title>动态连接线.82</title>
			<path d="M4.66 250.12 L9.51 250.12 L9.51 235.95" class="st7"/>
		</g>
		<g id="shape83-63" v:mID="83" v:groupContext="shape" v:layerMember="0" transform="translate(128.156,-111.968)">
			<title>动态连接线.83</title>
			<path d="M0 250.12 L34.84 250.12 L34.84 235.95" class="st7"/>
		</g>
		<g id="shape85-66" v:mID="85" v:groupContext="shape" v:layerMember="0" transform="translate(165.827,-126.142)">
			<title>动态连接线.85</title>
			<path d="M0 250.12 L28.5 250.12 L28.5 235.95" class="st7"/>
		</g>
		<g id="shape113-69" v:mID="113" v:groupContext="shape" transform="translate(273.543,-24.0945)">
			<title> Junction  dot.113</title>
			<v:userDefs>
				<v:ud v:nameU="Max" v:val="VT0(0.078740157480315):24"/>
				<v:ud v:nameU="CH1" v:val="VT0(5):26"/>
				<v:ud v:nameU="LimSize" v:val="VT0(0):26"/>
				<v:ud v:nameU="visVersion" v:val="VT0(15):26"/>
			</v:userDefs>
			<path d="M0 247.29 A2.83465 2.83465 0 0 1 5.67 247.29 A2.83465 2.83465 0 1 1 0 247.29 Z" class="st8"/>
		</g>
		<g id="shape126-71" v:mID="126" v:groupContext="shape" v:layerMember="0" transform="translate(25.5118,-25.5118)">
			<title>动态连接线.126</title>
			<path d="M0 250.12 L21.54 250.12 L21.54 234.82" class="st7"/>
		</g>
		<g id="shape136-74" v:mID="136" v:groupContext="shape" transform="translate(191.488,-137.48)">
			<title> Junction  dot.136</title>
			<v:userDefs>
				<v:ud v:nameU="Max" v:val="VT0(0.078740157480315):24"/>
				<v:ud v:nameU="CH1" v:val="VT0(5):26"/>
				<v:ud v:nameU="LimSize" v:val="VT0(0):26"/>
				<v:ud v:nameU="visVersion" v:val="VT0(15):26"/>
			</v:userDefs>
			<path d="M0 247.29 A2.83465 2.83465 0 0 1 5.67 247.29 A2.83465 2.83465 0 1 1 0 247.29 Z" class="st8"/>
		</g>
		<g id="shape138-76" v:mID="138" v:groupContext="shape" transform="translate(82.2047,-80.7874)">
			<title> Junction  dot.138</title>
			<v:userDefs>
				<v:ud v:nameU="Max" v:val="VT0(0.078740157480315):24"/>
				<v:ud v:nameU="CH1" v:val="VT0(5):26"/>
				<v:ud v:nameU="LimSize" v:val="VT0(0):26"/>
				<v:ud v:nameU="visVersion" v:val="VT0(15):26"/>
			</v:userDefs>
			<path d="M0 247.29 A2.83465 2.83465 0 0 1 5.67 247.29 A2.83465 2.83465 0 1 1 0 247.29 Z" class="st8"/>
		</g>
		<g id="shape139-78" v:mID="139" v:groupContext="shape" transform="translate(65.7936,-66.6141)">
			<title> Junction  dot.139</title>
			<v:userDefs>
				<v:ud v:nameU="Max" v:val="VT0(0.078740157480315):24"/>
				<v:ud v:nameU="CH1" v:val="VT0(5):26"/>
				<v:ud v:nameU="LimSize" v:val="VT0(0):26"/>
				<v:ud v:nameU="visVersion" v:val="VT0(15):26"/>
			</v:userDefs>
			<path d="M0 247.29 A2.83465 2.83465 0 0 1 5.67 247.29 A2.83465 2.83465 0 1 1 0 247.29 Z" class="st8"/>
		</g>
		<g id="shape140-80" v:mID="140" v:groupContext="shape" transform="translate(43.937,-37.4173)">
			<title> Junction  dot.140</title>
			<v:userDefs>
				<v:ud v:nameU="Max" v:val="VT0(0.078740157480315):24"/>
				<v:ud v:nameU="CH1" v:val="VT0(5):26"/>
				<v:ud v:nameU="LimSize" v:val="VT0(0):26"/>
				<v:ud v:nameU="visVersion" v:val="VT0(15):26"/>
			</v:userDefs>
			<path d="M0 247.29 A2.83465 2.83465 0 0 1 5.67 247.29 A2.83465 2.83465 0 1 1 0 247.29 Z" class="st8"/>
		</g>
		<g id="shape141-82" v:mID="141" v:groupContext="shape" transform="translate(53.8582,-52.4409)">
			<title> Junction  dot.141</title>
			<v:userDefs>
				<v:ud v:nameU="Max" v:val="VT0(0.078740157480315):24"/>
				<v:ud v:nameU="CH1" v:val="VT0(5):26"/>
				<v:ud v:nameU="LimSize" v:val="VT0(0):26"/>
				<v:ud v:nameU="visVersion" v:val="VT0(15):26"/>
			</v:userDefs>
			<path d="M0 247.29 A2.83465 2.83465 0 0 1 5.67 247.29 A2.83465 2.83465 0 1 1 0 247.29 Z" class="st8"/>
		</g>
		<g id="shape142-84" v:mID="142" v:groupContext="shape" transform="translate(44.2205,-23.811)">
			<title> Junction  dot.142</title>
			<v:userDefs>
				<v:ud v:nameU="Max" v:val="VT0(0.078740157480315):24"/>
				<v:ud v:nameU="CH1" v:val="VT0(5):26"/>
				<v:ud v:nameU="LimSize" v:val="VT0(0):26"/>
				<v:ud v:nameU="visVersion" v:val="VT0(15):26"/>
			</v:userDefs>
			<path d="M0 247.29 A2.83465 2.83465 0 0 1 5.67 247.29 A2.83465 2.83465 0 1 1 0 247.29 Z" class="st8"/>
		</g>
		<g id="shape144-86" v:mID="144" v:groupContext="shape" transform="translate(122.487,-109.134)">
			<title> Junction  dot.144</title>
			<v:userDefs>
				<v:ud v:nameU="Max" v:val="VT0(0.078740157480315):24"/>
				<v:ud v:nameU="CH1" v:val="VT0(5):26"/>
				<v:ud v:nameU="LimSize" v:val="VT0(0):26"/>
				<v:ud v:nameU="visVersion" v:val="VT0(15):26"/>
			</v:userDefs>
			<path d="M0 247.29 A2.83465 2.83465 0 0 1 5.67 247.29 A2.83465 2.83465 0 1 1 0 247.29 Z" class="st8"/>
		</g>
		<g id="shape148-88" v:mID="148" v:groupContext="shape" transform="translate(117.638,-94.9606)">
			<title> Junction  dot.148</title>
			<v:userDefs>
				<v:ud v:nameU="Max" v:val="VT0(0.078740157480315):24"/>
				<v:ud v:nameU="CH1" v:val="VT0(5):26"/>
				<v:ud v:nameU="LimSize" v:val="VT0(0):26"/>
				<v:ud v:nameU="visVersion" v:val="VT0(15):26"/>
			</v:userDefs>
			<path d="M0 247.29 A2.83465 2.83465 0 0 1 5.67 247.29 A2.83465 2.83465 0 1 1 0 247.29 Z" class="st8"/>
		</g>
		<g id="shape158-90" v:mID="158" v:groupContext="shape" transform="translate(273.543,-165.827)">
			<title> Junction  dot.158</title>
			<v:userDefs>
				<v:ud v:nameU="Max" v:val="VT0(0.078740157480315):24"/>
				<v:ud v:nameU="CH1" v:val="VT0(5):26"/>
				<v:ud v:nameU="LimSize" v:val="VT0(0):26"/>
				<v:ud v:nameU="visVersion" v:val="VT0(15):26"/>
			</v:userDefs>
			<path d="M0 247.29 A2.83465 2.83465 0 0 1 5.67 247.29 A2.83465 2.83465 0 1 1 0 247.29 Z" class="st8"/>
		</g>
		<g id="shape159-92" v:mID="159" v:groupContext="shape" transform="translate(65.7936,-24.0945)">
			<title> Junction  dot.159</title>
			<v:userDefs>
				<v:ud v:nameU="Max" v:val="VT0(0.078740157480315):24"/>
				<v:ud v:nameU="CH1" v:val="VT0(5):26"/>
				<v:ud v:nameU="LimSize" v:val="VT0(0):26"/>
				<v:ud v:nameU="visVersion" v:val="VT0(15):26"/>
			</v:userDefs>
			<path d="M0 247.29 A2.83465 2.83465 0 0 1 5.67 247.29 A2.83465 2.83465 0 1 1 0 247.29 Z" class="st8"/>
		</g>
		<g id="shape160-94" v:mID="160" v:groupContext="shape" transform="translate(160.157,-123.307)">
			<title> Junction  dot.160</title>
			<v:userDefs>
				<v:ud v:nameU="Max" v:val="VT0(0.078740157480315):24"/>
				<v:ud v:nameU="CH1" v:val="VT0(5):26"/>
				<v:ud v:nameU="LimSize" v:val="VT0(0):26"/>
				<v:ud v:nameU="visVersion" v:val="VT0(15):26"/>
			</v:userDefs>
			<path d="M0 247.29 A2.83465 2.83465 0 0 1 5.67 247.29 A2.83465 2.83465 0 1 1 0 247.29 Z" class="st8"/>
		</g>
		<g id="shape165-96" v:mID="165" v:groupContext="shape" transform="translate(53.8582,-24.0945)">
			<title> Junction  dot.165</title>
			<v:userDefs>
				<v:ud v:nameU="Max" v:val="VT0(0.078740157480315):24"/>
				<v:ud v:nameU="CH1" v:val="VT0(5):26"/>
				<v:ud v:nameU="LimSize" v:val="VT0(0):26"/>
				<v:ud v:nameU="visVersion" v:val="VT0(15):26"/>
			</v:userDefs>
			<path d="M0 247.29 A2.83465 2.83465 0 0 1 5.67 247.29 A2.83465 2.83465 0 1 1 0 247.29 Z" class="st8"/>
		</g>
		<g id="shape166-98" v:mID="166" v:groupContext="shape" transform="translate(82.2047,-24.0945)">
			<title> Junction  dot.166</title>
			<v:userDefs>
				<v:ud v:nameU="Max" v:val="VT0(0.078740157480315):24"/>
				<v:ud v:nameU="CH1" v:val="VT0(5):26"/>
				<v:ud v:nameU="LimSize" v:val="VT0(0):26"/>
				<v:ud v:nameU="visVersion" v:val="VT0(15):26"/>
			</v:userDefs>
			<path d="M0 247.29 A2.83465 2.83465 0 0 1 5.67 247.29 A2.83465 2.83465 0 1 1 0 247.29 Z" class="st8"/>
		</g>
		<g id="shape167-100" v:mID="167" v:groupContext="shape" transform="translate(117.638,-24.0945)">
			<title> Junction  dot.167</title>
			<v:userDefs>
				<v:ud v:nameU="Max" v:val="VT0(0.078740157480315):24"/>
				<v:ud v:nameU="CH1" v:val="VT0(5):26"/>
				<v:ud v:nameU="LimSize" v:val="VT0(0):26"/>
				<v:ud v:nameU="visVersion" v:val="VT0(15):26"/>
			</v:userDefs>
			<path d="M0 247.29 A2.83465 2.83465 0 0 1 5.67 247.29 A2.83465 2.83465 0 1 1 0 247.29 Z" class="st8"/>
		</g>
		<g id="shape168-102" v:mID="168" v:groupContext="shape" transform="translate(122.487,-24.0945)">
			<title> Junction  dot.168</title>
			<v:userDefs>
				<v:ud v:nameU="Max" v:val="VT0(0.078740157480315):24"/>
				<v:ud v:nameU="CH1" v:val="VT0(5):26"/>
				<v:ud v:nameU="LimSize" v:val="VT0(0):26"/>
				<v:ud v:nameU="visVersion" v:val="VT0(15):26"/>
			</v:userDefs>
			<path d="M0 247.29 A2.83465 2.83465 0 0 1 5.67 247.29 A2.83465 2.83465 0 1 1 0 247.29 Z" class="st8"/>
		</g>
		<g id="shape169-104" v:mID="169" v:groupContext="shape" transform="translate(160.157,-24.0945)">
			<title> Junction  dot.169</title>
			<v:userDefs>
				<v:ud v:nameU="Max" v:val="VT0(0.078740157480315):24"/>
				<v:ud v:nameU="CH1" v:val="VT0(5):26"/>
				<v:ud v:nameU="LimSize" v:val="VT0(0):26"/>
				<v:ud v:nameU="visVersion" v:val="VT0(15):26"/>
			</v:userDefs>
			<path d="M0 247.29 A2.83465 2.83465 0 0 1 5.67 247.29 A2.83465 2.83465 0 1 1 0 247.29 Z" class="st8"/>
		</g>
		<g id="shape170-106" v:mID="170" v:groupContext="shape" transform="translate(191.488,-24.0945)">
			<title> Junction  dot.170</title>
			<v:userDefs>
				<v:ud v:nameU="Max" v:val="VT0(0.078740157480315):24"/>
				<v:ud v:nameU="CH1" v:val="VT0(5):26"/>
				<v:ud v:nameU="LimSize" v:val="VT0(0):26"/>
				<v:ud v:nameU="visVersion" v:val="VT0(15):26"/>
			</v:userDefs>
			<path d="M0 247.29 A2.83465 2.83465 0 0 1 5.67 247.29 A2.83465 2.83465 0 1 1 0 247.29 Z" class="st8"/>
		</g>
		<g id="shape171-108" v:mID="171" v:groupContext="shape" v:layerMember="0" transform="translate(197.157,-140.315)">
			<title>动态连接线.171</title>
			<path d="M0 250.12 L79.22 250.12 L79.22 224.61" class="st7"/>
		</g>
		<g id="shape173-111" v:mID="173" v:groupContext="shape" transform="translate(46.7716,-225.921)">
			<title> Junction  dot.173</title>
			<v:userDefs>
				<v:ud v:nameU="Max" v:val="VT0(0.078740157480315):24"/>
				<v:ud v:nameU="CH1" v:val="VT0(5):26"/>
				<v:ud v:nameU="LimSize" v:val="VT0(0):26"/>
				<v:ud v:nameU="visVersion" v:val="VT0(15):26"/>
			</v:userDefs>
			<path d="M0 247.29 A2.83465 2.83465 0 0 1 5.67 247.29 A2.83465 2.83465 0 1 1 0 247.29 Z" class="st8"/>
		</g>
		<g id="shape174-113" v:mID="174" v:groupContext="shape" transform="translate(49.2598,-218.268)">
			<title>Sheet.174</title>
			<desc>事件</desc>
			<v:textBlock v:margins="rect(4,4,4,4)" v:tabSpace="42.5197"/>
			<v:textRect cx="17.8898" cy="240.125" width="35.78" height="20"/>
			<rect x="0" y="230.125" width="35.7795" height="20" class="st9"/>
			<text x="5.89" y="243.72" class="st10" v:langID="2052"><v:paragraph v:horizAlign="1"/><v:tabList/>事件</text>		</g>
	</g>
</svg>
